<svg width="58" height="58" viewBox="0 0 58 58" fill="none" xmlns="http://www.w3.org/2000/svg">
<circle cx="29" cy="29" r="27.5" stroke="#1E1E1E" stroke-width="3"/>
<mask id="path-2-outside-1_2_15" maskUnits="userSpaceOnUse" x="8.71437" y="3.71397" width="41.1402" height="41.1402" fill="black">
<rect fill="white" x="8.71437" y="3.71397" width="41.1402" height="41.1402"/>
<path d="M19.758 13.1978C20.2761 13.48 20.7216 13.8787 21.0593 14.3625C21.3969 14.8464 21.6175 15.4021 21.7036 15.9858C22.3842 15.2503 23.1994 14.652 24.1051 14.2232C25.5049 13.5593 27.0702 13.3257 28.6029 13.552C32.5897 14.1397 36.327 15.8492 39.3787 18.4812C40.1858 19.1751 40.8425 20.0266 41.3086 20.9835C41.7747 21.9404 42.0402 22.9824 42.089 24.0457C42.6942 23.9669 43.3095 24.0384 43.8806 24.2538L43.8854 24.2553C45.9492 25.044 46.9087 27.3971 45.9948 29.3709C45.6439 30.1391 45.046 30.7679 44.2964 31.1571C44.4858 31.954 44.4192 32.8087 44.0519 33.6118C43.8359 34.0851 43.5247 34.5089 43.1377 34.8566C42.7507 35.2043 42.2962 35.4686 41.8026 35.6329C41.3089 35.7973 40.7868 35.8582 40.2686 35.8118C39.7504 35.7655 39.2473 35.6129 38.7906 35.3636L38.7899 35.3617C38.2522 35.0687 37.7952 34.6474 37.4596 34.1352C36.6226 34.7911 35.6608 35.2699 34.6329 35.5424C33.605 35.815 32.5324 35.8755 31.4804 35.7204C27.4974 35.1278 23.7644 33.4172 20.7149 30.7874C19.4826 29.7288 18.6116 28.3118 18.2236 26.7343C18.0003 25.828 17.9409 24.8891 18.0482 23.9618C17.5498 24.2773 16.9849 24.4727 16.3981 24.5326C15.8113 24.5925 15.2186 24.5152 14.6667 24.3069L14.6619 24.3055C14.1786 24.1199 13.7384 23.8374 13.3685 23.4752C12.9985 23.1131 12.7067 22.679 12.5108 22.1997C12.315 21.7205 12.2194 21.2062 12.2299 20.6886C12.2404 20.171 12.3568 19.6611 12.5718 19.1902C12.9178 18.4197 13.5146 17.7892 14.265 17.4016C14.0781 16.6112 14.1403 15.7507 14.5086 14.9472L14.5104 14.9433C14.7283 14.4741 15.0398 14.0543 15.4258 13.7097C15.8117 13.3651 16.2639 13.1029 16.7548 12.9393C17.2456 12.7756 17.7647 12.7139 18.2802 12.758C18.7958 12.802 19.2969 12.9509 19.7528 13.1954L19.758 13.1978ZM36.8292 32.016C36.8296 31.7385 36.8588 31.461 36.9184 31.185C36.4881 31.8486 35.8539 32.3545 35.1113 32.6265C34.1832 32.9712 33.1885 32.9354 32.2885 32.5229C31.3886 32.1105 30.712 31.3804 30.3673 30.4523C30.0225 29.5243 30.0584 28.5296 30.4708 27.6296L32.5919 23.0013C33.0044 22.1014 33.7345 21.4248 34.6625 21.0801C35.5812 20.7388 36.5888 20.7806 37.4852 21.1837C38.3852 21.5961 39.0618 22.3262 39.4065 23.2542C39.6868 24.0088 39.7164 24.8065 39.4959 25.5626C39.6657 25.3363 39.8603 25.1306 40.0721 24.9485C40.1587 24.0236 40.0225 23.0915 39.6749 22.2301C39.3273 21.3687 38.7783 20.6031 38.074 19.9974C35.3096 17.6123 31.9236 16.0629 28.3115 15.5303C27.1701 15.362 26.0045 15.5362 24.9622 16.0309C23.723 16.6165 22.7293 17.6193 22.1549 18.8637L20.5264 22.4343C19.9995 23.5817 19.8602 24.8695 20.1297 26.103C20.3991 27.3365 21.0626 28.4489 22.0199 29.2722C24.7825 31.6551 28.1645 33.2054 31.773 33.7428C32.6926 33.8775 33.631 33.7911 34.5104 33.4908C35.3899 33.1904 36.1851 32.6848 36.8302 32.0157L36.8292 32.016ZM16.2676 17.1324L16.2746 17.1512C16.5292 17.9143 16.1642 18.7924 15.3648 19.0957C14.934 19.2607 14.5859 19.5894 14.3966 20.0101L14.3934 20.0187C13.9659 20.9499 14.4044 22.0586 15.3807 22.4383C15.7846 22.5881 16.2286 22.5889 16.6331 22.4406C17.0375 22.2924 17.3758 22.0047 17.5871 21.6294C17.7264 21.366 17.9406 21.1497 18.2028 21.0079C18.4649 20.8661 18.7631 20.8051 19.0599 20.8327L19.9901 18.791C19.7763 18.5842 19.6285 18.3188 19.5651 18.0282C19.5018 17.7376 19.5258 17.4347 19.6341 17.1577C19.7804 16.7526 19.7775 16.3086 19.6258 15.9054C19.4741 15.5023 19.1836 15.1665 18.8064 14.9583C18.5908 14.8426 18.3538 14.7721 18.11 14.7511C17.8662 14.7301 17.6207 14.759 17.3884 14.8361C17.1562 14.9132 16.9421 15.0368 16.7592 15.1994C16.5764 15.3621 16.4286 15.5603 16.3249 15.782C16.1208 16.229 16.1143 16.7083 16.2657 17.1331L16.2676 17.1324ZM34.8894 25.7717L34.0704 27.5587C34.0674 27.5651 34.0658 27.572 34.0657 27.5791C34.0655 27.5861 34.0669 27.5931 34.0696 27.5996C34.0755 27.6155 34.0857 27.6256 34.0969 27.63L38.1981 29.5095C38.5338 29.6627 38.7985 29.9381 38.9382 30.2796C39.078 30.6211 39.0823 31.0031 38.9502 31.3476C38.6245 32.2197 38.979 33.1856 39.7489 33.6069C39.9646 33.7249 40.2023 33.797 40.4472 33.819C40.692 33.8409 40.9387 33.8121 41.172 33.7344C41.4052 33.6567 41.6199 33.5317 41.8026 33.3672C41.9854 33.2028 42.1322 33.0025 42.2341 32.7787C42.4317 32.3552 42.4538 31.8707 42.2956 31.4309C42.0022 30.6268 42.4299 29.7766 43.1755 29.4719L43.1845 29.4675L43.1939 29.464C43.6133 29.3008 43.974 28.9823 44.1784 28.5361L44.1802 28.5323C44.6024 27.6213 44.1677 26.5058 43.1758 26.1243C42.3544 25.8171 41.3935 26.1794 40.9456 26.9954C40.7707 27.3209 40.4782 27.5674 40.1277 27.6845C39.7773 27.8016 39.3954 27.7805 39.06 27.6255L34.9588 25.7459C34.9524 25.7429 34.9455 25.7413 34.9385 25.7412C34.9314 25.741 34.9244 25.7424 34.9179 25.7451C34.9114 25.7473 34.9055 25.7509 34.9004 25.7555C34.8953 25.7602 34.8922 25.7654 34.8894 25.7717Z"/>
</mask>
<path d="M19.758 13.1978C20.2761 13.48 20.7216 13.8787 21.0593 14.3625C21.3969 14.8464 21.6175 15.4021 21.7036 15.9858C22.3842 15.2503 23.1994 14.652 24.1051 14.2232C25.5049 13.5593 27.0702 13.3257 28.6029 13.552C32.5897 14.1397 36.327 15.8492 39.3787 18.4812C40.1858 19.1751 40.8425 20.0266 41.3086 20.9835C41.7747 21.9404 42.0402 22.9824 42.089 24.0457C42.6942 23.9669 43.3095 24.0384 43.8806 24.2538L43.8854 24.2553C45.9492 25.044 46.9087 27.3971 45.9948 29.3709C45.6439 30.1391 45.046 30.7679 44.2964 31.1571C44.4858 31.954 44.4192 32.8087 44.0519 33.6118C43.8359 34.0851 43.5247 34.5089 43.1377 34.8566C42.7507 35.2043 42.2962 35.4686 41.8026 35.6329C41.3089 35.7973 40.7868 35.8582 40.2686 35.8118C39.7504 35.7655 39.2473 35.6129 38.7906 35.3636L38.7899 35.3617C38.2522 35.0687 37.7952 34.6474 37.4596 34.1352C36.6226 34.7911 35.6608 35.2699 34.6329 35.5424C33.605 35.815 32.5324 35.8755 31.4804 35.7204C27.4974 35.1278 23.7644 33.4172 20.7149 30.7874C19.4826 29.7288 18.6116 28.3118 18.2236 26.7343C18.0003 25.828 17.9409 24.8891 18.0482 23.9618C17.5498 24.2773 16.9849 24.4727 16.3981 24.5326C15.8113 24.5925 15.2186 24.5152 14.6667 24.3069L14.6619 24.3055C14.1786 24.1199 13.7384 23.8374 13.3685 23.4752C12.9985 23.1131 12.7067 22.679 12.5108 22.1997C12.315 21.7205 12.2194 21.2062 12.2299 20.6886C12.2404 20.171 12.3568 19.6611 12.5718 19.1902C12.9178 18.4197 13.5146 17.7892 14.265 17.4016C14.0781 16.6112 14.1403 15.7507 14.5086 14.9472L14.5104 14.9433C14.7283 14.4741 15.0398 14.0543 15.4258 13.7097C15.8117 13.3651 16.2639 13.1029 16.7548 12.9393C17.2456 12.7756 17.7647 12.7139 18.2802 12.758C18.7958 12.802 19.2969 12.9509 19.7528 13.1954L19.758 13.1978ZM36.8292 32.016C36.8296 31.7385 36.8588 31.461 36.9184 31.185C36.4881 31.8486 35.8539 32.3545 35.1113 32.6265C34.1832 32.9712 33.1885 32.9354 32.2885 32.5229C31.3886 32.1105 30.712 31.3804 30.3673 30.4523C30.0225 29.5243 30.0584 28.5296 30.4708 27.6296L32.5919 23.0013C33.0044 22.1014 33.7345 21.4248 34.6625 21.0801C35.5812 20.7388 36.5888 20.7806 37.4852 21.1837C38.3852 21.5961 39.0618 22.3262 39.4065 23.2542C39.6868 24.0088 39.7164 24.8065 39.4959 25.5626C39.6657 25.3363 39.8603 25.1306 40.0721 24.9485C40.1587 24.0236 40.0225 23.0915 39.6749 22.2301C39.3273 21.3687 38.7783 20.6031 38.074 19.9974C35.3096 17.6123 31.9236 16.0629 28.3115 15.5303C27.1701 15.362 26.0045 15.5362 24.9622 16.0309C23.723 16.6165 22.7293 17.6193 22.1549 18.8637L20.5264 22.4343C19.9995 23.5817 19.8602 24.8695 20.1297 26.103C20.3991 27.3365 21.0626 28.4489 22.0199 29.2722C24.7825 31.6551 28.1645 33.2054 31.773 33.7428C32.6926 33.8775 33.631 33.7911 34.5104 33.4908C35.3899 33.1904 36.1851 32.6848 36.8302 32.0157L36.8292 32.016ZM16.2676 17.1324L16.2746 17.1512C16.5292 17.9143 16.1642 18.7924 15.3648 19.0957C14.934 19.2607 14.5859 19.5894 14.3966 20.0101L14.3934 20.0187C13.9659 20.9499 14.4044 22.0586 15.3807 22.4383C15.7846 22.5881 16.2286 22.5889 16.6331 22.4406C17.0375 22.2924 17.3758 22.0047 17.5871 21.6294C17.7264 21.366 17.9406 21.1497 18.2028 21.0079C18.4649 20.8661 18.7631 20.8051 19.0599 20.8327L19.9901 18.791C19.7763 18.5842 19.6285 18.3188 19.5651 18.0282C19.5018 17.7376 19.5258 17.4347 19.6341 17.1577C19.7804 16.7526 19.7775 16.3086 19.6258 15.9054C19.4741 15.5023 19.1836 15.1665 18.8064 14.9583C18.5908 14.8426 18.3538 14.7721 18.11 14.7511C17.8662 14.7301 17.6207 14.759 17.3884 14.8361C17.1562 14.9132 16.9421 15.0368 16.7592 15.1994C16.5764 15.3621 16.4286 15.5603 16.3249 15.782C16.1208 16.229 16.1143 16.7083 16.2657 17.1331L16.2676 17.1324ZM34.8894 25.7717L34.0704 27.5587C34.0674 27.5651 34.0658 27.572 34.0657 27.5791C34.0655 27.5861 34.0669 27.5931 34.0696 27.5996C34.0755 27.6155 34.0857 27.6256 34.0969 27.63L38.1981 29.5095C38.5338 29.6627 38.7985 29.9381 38.9382 30.2796C39.078 30.6211 39.0823 31.0031 38.9502 31.3476C38.6245 32.2197 38.979 33.1856 39.7489 33.6069C39.9646 33.7249 40.2023 33.797 40.4472 33.819C40.692 33.8409 40.9387 33.8121 41.172 33.7344C41.4052 33.6567 41.6199 33.5317 41.8026 33.3672C41.9854 33.2028 42.1322 33.0025 42.2341 32.7787C42.4317 32.3552 42.4538 31.8707 42.2956 31.4309C42.0022 30.6268 42.4299 29.7766 43.1755 29.4719L43.1845 29.4675L43.1939 29.464C43.6133 29.3008 43.974 28.9823 44.1784 28.5361L44.1802 28.5323C44.6024 27.6213 44.1677 26.5058 43.1758 26.1243C42.3544 25.8171 41.3935 26.1794 40.9456 26.9954C40.7707 27.3209 40.4782 27.5674 40.1277 27.6845C39.7773 27.8016 39.3954 27.7805 39.06 27.6255L34.9588 25.7459C34.9524 25.7429 34.9455 25.7413 34.9385 25.7412C34.9314 25.741 34.9244 25.7424 34.9179 25.7451C34.9114 25.7473 34.9055 25.7509 34.9004 25.7555C34.8953 25.7602 34.8922 25.7654 34.8894 25.7717Z" fill="#1E1E1E"/>
<path d="M19.758 13.1978C20.2761 13.48 20.7216 13.8787 21.0593 14.3625C21.3969 14.8464 21.6175 15.4021 21.7036 15.9858C22.3842 15.2503 23.1994 14.652 24.1051 14.2232C25.5049 13.5593 27.0702 13.3257 28.6029 13.552C32.5897 14.1397 36.327 15.8492 39.3787 18.4812C40.1858 19.1751 40.8425 20.0266 41.3086 20.9835C41.7747 21.9404 42.0402 22.9824 42.089 24.0457C42.6942 23.9669 43.3095 24.0384 43.8806 24.2538L43.8854 24.2553C45.9492 25.044 46.9087 27.3971 45.9948 29.3709C45.6439 30.1391 45.046 30.7679 44.2964 31.1571C44.4858 31.954 44.4192 32.8087 44.0519 33.6118C43.8359 34.0851 43.5247 34.5089 43.1377 34.8566C42.7507 35.2043 42.2962 35.4686 41.8026 35.6329C41.3089 35.7973 40.7868 35.8582 40.2686 35.8118C39.7504 35.7655 39.2473 35.6129 38.7906 35.3636L38.7899 35.3617C38.2522 35.0687 37.7952 34.6474 37.4596 34.1352C36.6226 34.7911 35.6608 35.2699 34.6329 35.5424C33.605 35.815 32.5324 35.8755 31.4804 35.7204C27.4974 35.1278 23.7644 33.4172 20.7149 30.7874C19.4826 29.7288 18.6116 28.3118 18.2236 26.7343C18.0003 25.828 17.9409 24.8891 18.0482 23.9618C17.5498 24.2773 16.9849 24.4727 16.3981 24.5326C15.8113 24.5925 15.2186 24.5152 14.6667 24.3069L14.6619 24.3055C14.1786 24.1199 13.7384 23.8374 13.3685 23.4752C12.9985 23.1131 12.7067 22.679 12.5108 22.1997C12.315 21.7205 12.2194 21.2062 12.2299 20.6886C12.2404 20.171 12.3568 19.6611 12.5718 19.1902C12.9178 18.4197 13.5146 17.7892 14.265 17.4016C14.0781 16.6112 14.1403 15.7507 14.5086 14.9472L14.5104 14.9433C14.7283 14.4741 15.0398 14.0543 15.4258 13.7097C15.8117 13.3651 16.2639 13.1029 16.7548 12.9393C17.2456 12.7756 17.7647 12.7139 18.2802 12.758C18.7958 12.802 19.2969 12.9509 19.7528 13.1954L19.758 13.1978ZM36.8292 32.016C36.8296 31.7385 36.8588 31.461 36.9184 31.185C36.4881 31.8486 35.8539 32.3545 35.1113 32.6265C34.1832 32.9712 33.1885 32.9354 32.2885 32.5229C31.3886 32.1105 30.712 31.3804 30.3673 30.4523C30.0225 29.5243 30.0584 28.5296 30.4708 27.6296L32.5919 23.0013C33.0044 22.1014 33.7345 21.4248 34.6625 21.0801C35.5812 20.7388 36.5888 20.7806 37.4852 21.1837C38.3852 21.5961 39.0618 22.3262 39.4065 23.2542C39.6868 24.0088 39.7164 24.8065 39.4959 25.5626C39.6657 25.3363 39.8603 25.1306 40.0721 24.9485C40.1587 24.0236 40.0225 23.0915 39.6749 22.2301C39.3273 21.3687 38.7783 20.6031 38.074 19.9974C35.3096 17.6123 31.9236 16.0629 28.3115 15.5303C27.1701 15.362 26.0045 15.5362 24.9622 16.0309C23.723 16.6165 22.7293 17.6193 22.1549 18.8637L20.5264 22.4343C19.9995 23.5817 19.8602 24.8695 20.1297 26.103C20.3991 27.3365 21.0626 28.4489 22.0199 29.2722C24.7825 31.6551 28.1645 33.2054 31.773 33.7428C32.6926 33.8775 33.631 33.7911 34.5104 33.4908C35.3899 33.1904 36.1851 32.6848 36.8302 32.0157L36.8292 32.016ZM16.2676 17.1324L16.2746 17.1512C16.5292 17.9143 16.1642 18.7924 15.3648 19.0957C14.934 19.2607 14.5859 19.5894 14.3966 20.0101L14.3934 20.0187C13.9659 20.9499 14.4044 22.0586 15.3807 22.4383C15.7846 22.5881 16.2286 22.5889 16.6331 22.4406C17.0375 22.2924 17.3758 22.0047 17.5871 21.6294C17.7264 21.366 17.9406 21.1497 18.2028 21.0079C18.4649 20.8661 18.7631 20.8051 19.0599 20.8327L19.9901 18.791C19.7763 18.5842 19.6285 18.3188 19.5651 18.0282C19.5018 17.7376 19.5258 17.4347 19.6341 17.1577C19.7804 16.7526 19.7775 16.3086 19.6258 15.9054C19.4741 15.5023 19.1836 15.1665 18.8064 14.9583C18.5908 14.8426 18.3538 14.7721 18.11 14.7511C17.8662 14.7301 17.6207 14.759 17.3884 14.8361C17.1562 14.9132 16.9421 15.0368 16.7592 15.1994C16.5764 15.3621 16.4286 15.5603 16.3249 15.782C16.1208 16.229 16.1143 16.7083 16.2657 17.1331L16.2676 17.1324ZM34.8894 25.7717L34.0704 27.5587C34.0674 27.5651 34.0658 27.572 34.0657 27.5791C34.0655 27.5861 34.0669 27.5931 34.0696 27.5996C34.0755 27.6155 34.0857 27.6256 34.0969 27.63L38.1981 29.5095C38.5338 29.6627 38.7985 29.9381 38.9382 30.2796C39.078 30.6211 39.0823 31.0031 38.9502 31.3476C38.6245 32.2197 38.979 33.1856 39.7489 33.6069C39.9646 33.7249 40.2023 33.797 40.4472 33.819C40.692 33.8409 40.9387 33.8121 41.172 33.7344C41.4052 33.6567 41.6199 33.5317 41.8026 33.3672C41.9854 33.2028 42.1322 33.0025 42.2341 32.7787C42.4317 32.3552 42.4538 31.8707 42.2956 31.4309C42.0022 30.6268 42.4299 29.7766 43.1755 29.4719L43.1845 29.4675L43.1939 29.464C43.6133 29.3008 43.974 28.9823 44.1784 28.5361L44.1802 28.5323C44.6024 27.6213 44.1677 26.5058 43.1758 26.1243C42.3544 25.8171 41.3935 26.1794 40.9456 26.9954C40.7707 27.3209 40.4782 27.5674 40.1277 27.6845C39.7773 27.8016 39.3954 27.7805 39.06 27.6255L34.9588 25.7459C34.9524 25.7429 34.9455 25.7413 34.9385 25.7412C34.9314 25.741 34.9244 25.7424 34.9179 25.7451C34.9114 25.7473 34.9055 25.7509 34.9004 25.7555C34.8953 25.7602 34.8922 25.7654 34.8894 25.7717Z" stroke="white" stroke-width="2" mask="url(#path-2-outside-1_2_15)"/>
<path d="M31.7868 36.2139C32.0604 35.7167 32.5608 35.5529 33.0053 35.5892C33.4552 35.626 33.9151 35.8639 34.185 36.219L34.1976 36.2356L34.2088 36.2532C34.2085 36.2528 34.2095 36.2544 34.2128 36.2594L34.2249 36.2776L34.2646 36.3376C34.2972 36.3871 34.3408 36.4539 34.3931 36.5366C34.4977 36.7019 34.6371 36.9301 34.7944 37.2106C35.1084 37.7706 35.4964 38.5429 35.8227 39.4425C36.4699 41.2262 36.9043 43.5937 35.9266 45.7962L35.919 45.8131L35.9103 45.8294C35.2119 47.133 34.1924 48.2412 32.9464 49.0522C31.9065 49.7331 30.7447 50.2118 29.5236 50.4629L31.7868 36.2139ZM31.7868 36.2139C31.9468 34.5243 31.7589 32.7795 31.1036 31.2042L31.1036 31.2042L31.1022 31.2008C30.1426 28.9419 28.5033 27.0296 26.4073 25.7222L26.3681 25.6978L26.3251 25.6809L26.1037 25.5941M27.3775 48.9076C27.4039 49.167 27.4895 49.4158 27.6263 49.6359L17.0073 42.3429C16.9659 43.2583 17.1016 44.173 17.407 45.0383L16.9354 45.2043C16.9354 45.2044 16.9354 45.2045 16.9355 45.2045C17.2589 46.1232 17.7594 46.971 18.409 47.7013C19.5705 49.0318 21.2573 49.8411 22.9982 50.261C23.3318 50.3421 23.6821 50.3255 24.0065 50.2131L24.0078 50.2127C24.3327 50.0992 24.6191 49.8965 24.8331 49.6274L24.8341 49.6261C25.0537 49.348 25.1761 49.0061 25.1817 48.6518C25.1873 48.2976 25.0757 47.952 24.8649 47.6672C24.2521 46.8392 23.7694 46.041 23.7005 45.0858C23.6442 44.3052 23.8613 43.3497 24.6498 42.1233C25.0929 43.1981 25.8245 44.1406 26.7735 44.8445L26.7752 44.8457C27.0545 45.051 27.2884 45.3097 27.463 45.6058C27.6405 45.9068 27.7561 46.2389 27.8035 46.5834C27.8593 47.0615 27.7718 47.5451 27.5522 47.966L27.5522 47.966L27.5481 47.9741C27.404 48.263 27.3448 48.5865 27.3775 48.9076ZM16.5061 42.3073C16.5063 42.3206 16.5066 42.332 16.5069 42.3413L26.1032 25.5939L26.1035 25.594C25.8474 25.4934 25.5665 25.473 25.2986 25.5354C25.0309 25.5977 24.7881 25.7399 24.6035 25.9439C24.421 26.1444 24.299 26.3925 24.2526 26.6598C24.2061 26.9274 24.2373 27.2025 24.3425 27.453L24.3535 27.4791L24.3674 27.5039C24.7491 28.185 24.7735 28.9409 24.5577 29.7358C24.3397 30.5384 23.8833 31.3508 23.3502 32.0905C22.8197 32.8265 22.2304 33.4673 21.7711 33.9257C21.5421 34.1543 21.347 34.336 21.21 34.4598C21.1415 34.5217 21.0876 34.5691 21.0513 34.6006L21.0106 34.6356L21.0019 34.643C18.6765 36.5087 17.5465 38.4103 17.0021 39.8684C16.7304 40.5959 16.6062 41.2086 16.5503 41.6456C16.5223 41.8641 16.5114 42.0387 16.5076 42.1619C16.5057 42.2235 16.5057 42.2723 16.5061 42.3073Z" fill="#1E1E1E"/>
<path d="M31.7868 36.2139C32.0604 35.7167 32.5608 35.5529 33.0053 35.5892C33.4552 35.626 33.9151 35.8639 34.185 36.219L34.1976 36.2356L34.2088 36.2532C34.2085 36.2528 34.2095 36.2544 34.2128 36.2594L34.2249 36.2776L34.2646 36.3376C34.2972 36.3871 34.3408 36.4539 34.3931 36.5366C34.4977 36.7019 34.6371 36.9301 34.7944 37.2106C35.1084 37.7706 35.4964 38.5429 35.8227 39.4425C36.4699 41.2262 36.9043 43.5937 35.9266 45.7962L35.919 45.8131L35.9103 45.8294C35.2119 47.133 34.1924 48.2412 32.9464 49.0522C31.9065 49.7331 30.7447 50.2118 29.5236 50.4629L31.7868 36.2139ZM31.7868 36.2139C31.9468 34.5243 31.7589 32.7795 31.1036 31.2042L31.1036 31.2042L31.1022 31.2008C30.1426 28.9419 28.5033 27.0296 26.4073 25.7222L26.3681 25.6978L26.3251 25.6809L26.1037 25.5941M27.3775 48.9076C27.4039 49.167 27.4895 49.4158 27.6263 49.6359L17.0073 42.3429C16.9659 43.2583 17.1016 44.173 17.407 45.0383L16.9354 45.2043C16.9354 45.2044 16.9354 45.2045 16.9355 45.2045C17.2589 46.1232 17.7594 46.971 18.409 47.7013C19.5705 49.0318 21.2573 49.8411 22.9982 50.261C23.3318 50.3421 23.6821 50.3255 24.0065 50.2131L24.0078 50.2127C24.3327 50.0992 24.6191 49.8965 24.8331 49.6274L24.8341 49.6261C25.0537 49.348 25.1761 49.0061 25.1817 48.6518C25.1873 48.2976 25.0757 47.952 24.8649 47.6672C24.2521 46.8392 23.7694 46.041 23.7005 45.0858C23.6442 44.3052 23.8613 43.3497 24.6498 42.1233C25.0929 43.1981 25.8245 44.1406 26.7735 44.8445L26.7752 44.8457C27.0545 45.051 27.2884 45.3097 27.463 45.6058C27.6405 45.9068 27.7561 46.2389 27.8035 46.5834C27.8593 47.0615 27.7718 47.5451 27.5522 47.966L27.5522 47.966L27.5481 47.9741C27.404 48.263 27.3448 48.5865 27.3775 48.9076ZM16.5061 42.3073C16.5063 42.3206 16.5066 42.332 16.5069 42.3413L26.1032 25.5939L26.1035 25.594C25.8474 25.4934 25.5665 25.473 25.2986 25.5354C25.0309 25.5977 24.7881 25.7399 24.6035 25.9439C24.421 26.1444 24.299 26.3925 24.2526 26.6598C24.2061 26.9274 24.2373 27.2025 24.3425 27.453L24.3535 27.4791L24.3674 27.5039C24.7491 28.185 24.7735 28.9409 24.5577 29.7358C24.3397 30.5384 23.8833 31.3508 23.3502 32.0905C22.8197 32.8265 22.2304 33.4673 21.7711 33.9257C21.5421 34.1543 21.347 34.336 21.21 34.4598C21.1415 34.5217 21.0876 34.5691 21.0513 34.6006L21.0106 34.6356L21.0019 34.643C18.6765 36.5087 17.5465 38.4103 17.0021 39.8684C16.7304 40.5959 16.6062 41.2086 16.5503 41.6456C16.5223 41.8641 16.5114 42.0387 16.5076 42.1619C16.5057 42.2235 16.5057 42.2723 16.5061 42.3073Z" stroke="white"/>
<path d="M31.7868 36.2139C32.0604 35.7167 32.5608 35.5529 33.0053 35.5892C33.4552 35.626 33.9151 35.8639 34.185 36.219L34.1976 36.2356L34.2088 36.2532C34.2085 36.2528 34.2095 36.2544 34.2128 36.2594L34.2249 36.2776L34.2646 36.3376C34.2972 36.3871 34.3408 36.4539 34.3931 36.5366C34.4977 36.7019 34.6371 36.9301 34.7944 37.2106C35.1084 37.7706 35.4964 38.5429 35.8227 39.4425C36.4699 41.2262 36.9043 43.5937 35.9266 45.7962L35.919 45.8131L35.9103 45.8294C35.2119 47.133 34.1924 48.2412 32.9464 49.0522C31.9065 49.7331 30.7447 50.2118 29.5236 50.4629L31.7868 36.2139ZM31.7868 36.2139C31.9468 34.5243 31.7589 32.7795 31.1036 31.2042L31.1036 31.2042L31.1022 31.2008C30.1426 28.9419 28.5033 27.0296 26.4073 25.7222L26.3681 25.6978L26.3251 25.6809L26.1037 25.5941M27.3775 48.9076C27.4039 49.167 27.4895 49.4158 27.6263 49.6359L17.0073 42.3429C16.9659 43.2583 17.1016 44.173 17.407 45.0383L16.9354 45.2043C16.9354 45.2044 16.9354 45.2045 16.9355 45.2045C17.2589 46.1232 17.7594 46.971 18.409 47.7013C19.5705 49.0318 21.2573 49.8411 22.9982 50.261C23.3318 50.3421 23.6821 50.3255 24.0065 50.2131L24.0078 50.2127C24.3327 50.0992 24.6191 49.8965 24.8331 49.6274L24.8341 49.6261C25.0537 49.348 25.1761 49.0061 25.1817 48.6518C25.1873 48.2976 25.0757 47.952 24.8649 47.6672C24.2521 46.8392 23.7694 46.041 23.7005 45.0858C23.6442 44.3052 23.8613 43.3497 24.6498 42.1233C25.0929 43.1981 25.8245 44.1406 26.7735 44.8445L26.7752 44.8457C27.0545 45.051 27.2884 45.3097 27.463 45.6058C27.6405 45.9068 27.7561 46.2389 27.8035 46.5834C27.8593 47.0615 27.7718 47.5451 27.5522 47.966L27.5522 47.966L27.5481 47.9741C27.404 48.263 27.3448 48.5865 27.3775 48.9076ZM16.5061 42.3073C16.5063 42.3206 16.5066 42.332 16.5069 42.3413L26.1032 25.5939L26.1035 25.594C25.8474 25.4934 25.5665 25.473 25.2986 25.5354C25.0309 25.5977 24.7881 25.7399 24.6035 25.9439C24.421 26.1444 24.299 26.3925 24.2526 26.6598C24.2061 26.9274 24.2373 27.2025 24.3425 27.453L24.3535 27.4791L24.3674 27.5039C24.7491 28.185 24.7735 28.9409 24.5577 29.7358C24.3397 30.5384 23.8833 31.3508 23.3502 32.0905C22.8197 32.8265 22.2304 33.4673 21.7711 33.9257C21.5421 34.1543 21.347 34.336 21.21 34.4598C21.1415 34.5217 21.0876 34.5691 21.0513 34.6006L21.0106 34.6356L21.0019 34.643C18.6765 36.5087 17.5465 38.4103 17.0021 39.8684C16.7304 40.5959 16.6062 41.2086 16.5503 41.6456C16.5223 41.8641 16.5114 42.0387 16.5076 42.1619C16.5057 42.2235 16.5057 42.2723 16.5061 42.3073Z" stroke="white"/>
</svg>
